<?xml version="1.0" standalone="no"?>
<!DOCTYPE svg PUBLIC "-//W3C//DTD SVG 20010904//EN"
 "http://www.w3.org/TR/2001/REC-SVG-20010904/DTD/svg10.dtd">
<svg version="1.0" xmlns="http://www.w3.org/2000/svg"
 width="120.000000pt" height="120.000000pt" viewBox="0 0 120.000000 120.000000"
 preserveAspectRatio="xMidYMid meet">

<g transform="translate(0.000000,120.000000) scale(0.100000,-0.100000)"
fill="#000000" stroke="none">
<path d="M330 980 c0 -73 18 -120 46 -120 8 0 14 -3 14 -7 0 -5 16 -26 35 -47
l35 -40 0 81 c0 74 -2 84 -27 113 -16 18 -34 37 -41 44 -7 6 -21 19 -30 29
-27 28 -32 20 -32 -53z m103 -39 c12 -15 17 -39 17 -83 l0 -62 -33 37 c-18 20
-36 37 -41 37 -22 0 -35 39 -36 103 l0 67 38 -39 c20 -22 45 -49 55 -60z"/>
<path d="M770 977 c0 -66 3 -77 28 -105 35 -40 57 -63 82 -86 l20 -19 0 77 c0
81 -11 116 -35 116 -8 0 -15 3 -15 8 0 9 -65 82 -73 82 -4 0 -7 -33 -7 -73z
m57 6 c18 -21 33 -41 33 -45 0 -5 7 -8 15 -8 12 0 15 -14 15 -66 0 -72 -5 -74
-50 -21 -14 17 -33 37 -42 46 -13 11 -18 31 -18 73 0 32 3 58 7 58 3 0 21 -17
40 -37z"/>
<path d="M550 380 c0 -73 4 -120 10 -120 6 0 10 22 10 49 0 55 18 82 50 74 17
-5 20 -14 20 -64 0 -46 3 -59 15 -59 20 0 20 78 0 126 -13 32 -18 35 -47 32
-32 -3 -33 -2 -36 40 -2 23 -7 42 -13 42 -5 0 -9 -52 -9 -120z"/>
<path d="M176 404 c-20 -19 -21 -103 -3 -128 9 -12 23 -17 42 -14 41 4 43 26
3 30 -22 2 -34 9 -36 21 -3 14 4 17 38 17 34 0 41 3 36 16 -3 9 -6 22 -6 29 0
18 -28 45 -45 45 -7 0 -21 -7 -29 -16z m52 -37 c3 -12 -3 -17 -22 -17 -25 0
-35 18 -19 34 12 12 38 2 41 -17z"/>
<path d="M295 403 c-9 -9 -15 -33 -15 -63 0 -39 5 -55 26 -77 18 -18 28 -24
31 -15 3 6 18 12 34 12 l29 0 0 79 0 79 -45 0 c-27 0 -51 -6 -60 -15z m63 -65
c-3 -48 -29 -64 -48 -29 -17 32 -2 71 27 71 22 0 24 -3 21 -42z"/>
</g>
</svg>
