<?xml version="1.0" standalone="no"?>
<!DOCTYPE svg PUBLIC "-//W3C//DTD SVG 20010904//EN"
 "http://www.w3.org/TR/2001/REC-SVG-20010904/DTD/svg10.dtd">
<svg version="1.0" xmlns="http://www.w3.org/2000/svg"
 width="4873.000000pt" height="3031.000000pt" viewBox="0 0 4873.000000 3031.000000"
 preserveAspectRatio="xMidYMid meet">

<g transform="translate(0.000000,3031.000000) scale(0.100000,-0.100000)"
fill="#000000" stroke="none">
<path d="M12940 24395 c0 -1463 3 -2205 10 -2205 6 0 10 -7 10 -15 0 -9 9 -15
25 -15 18 0 25 -5 25 -20 0 -15 7 -20 25 -20 16 0 25 -6 25 -15 0 -9 9 -15 25
-15 16 0 25 -6 25 -15 0 -8 5 -15 10 -15 6 0 10 -7 10 -15 0 -9 9 -15 25 -15
16 0 25 -6 25 -15 0 -9 9 -15 25 -15 18 0 25 -5 25 -20 0 -15 7 -20 25 -20 16
0 25 -6 25 -15 0 -9 9 -15 25 -15 16 0 25 -6 25 -15 0 -8 7 -15 15 -15 8 0 15
-7 15 -15 0 -8 9 -15 20 -15 11 0 20 -7 20 -15 0 -9 9 -15 25 -15 18 0 25 -5
25 -20 0 -11 7 -20 15 -20 8 0 15 -7 15 -15 0 -9 9 -15 25 -15 16 0 25 -6 25
-15 0 -9 9 -15 25 -15 16 0 25 -6 25 -15 0 -9 9 -15 25 -15 16 0 25 -6 25 -15
0 -8 5 -15 10 -15 6 0 10 -9 10 -20 0 -15 7 -20 25 -20 16 0 25 -6 25 -15 0
-9 9 -15 25 -15 16 0 25 -6 25 -15 0 -9 9 -15 25 -15 16 0 25 -6 25 -15 0 -8
5 -15 10 -15 6 0 10 -7 10 -15 0 -9 9 -15 25 -15 18 0 25 -5 25 -20 0 -15 7
-20 25 -20 16 0 25 -6 25 -15 0 -9 9 -15 25 -15 16 0 25 -6 25 -15 0 -8 7 -15
15 -15 8 0 15 -7 15 -15 0 -9 9 -15 25 -15 16 0 25 -6 25 -15 0 -9 9 -15 25
-15 18 0 25 -5 25 -20 0 -11 5 -20 10 -20 6 0 10 -7 10 -15 0 -9 9 -15 25 -15
16 0 25 -6 25 -15 0 -9 9 -15 25 -15 16 0 25 -6 25 -15 0 -9 9 -15 25 -15 16
0 25 -6 25 -15 0 -8 5 -15 10 -15 6 0 10 -9 10 -20 0 -15 7 -20 25 -20 16 0
25 -6 25 -15 0 -9 9 -15 25 -15 16 0 25 -6 25 -15 0 -8 7 -15 15 -15 8 0 15
-7 15 -15 0 -9 9 -15 25 -15 16 0 25 -6 25 -15 0 -9 9 -15 25 -15 18 0 25 -5
25 -20 0 -13 7 -20 20 -20 11 0 20 -7 20 -15 0 -8 7 -15 15 -15 8 0 15 -7 15
-15 0 -9 9 -15 25 -15 16 0 25 -6 25 -15 0 -9 9 -15 25 -15 16 0 25 -6 25 -15
0 -9 9 -15 25 -15 18 0 25 -5 25 -20 0 -11 5 -20 10 -20 6 0 10 -7 10 -15 0
-9 9 -15 25 -15 16 0 25 -6 25 -15 0 -9 9 -15 25 -15 16 0 25 -6 25 -15 0 -9
9 -15 25 -15 16 0 25 -6 25 -15 0 -8 5 -15 10 -15 6 0 10 -9 10 -20 0 -15 7
-20 25 -20 16 0 25 -6 25 -15 0 -9 9 -15 25 -15 16 0 25 -6 25 -15 0 -9 9 -15
25 -15 16 0 25 -6 25 -15 0 -8 7 -15 15 -15 8 0 15 -7 15 -15 0 -9 9 -15 25
-15 18 0 25 -5 25 -20 0 -15 7 -20 25 -20 16 0 25 -6 25 -15 0 -8 5 -15 10
-15 6 0 10 -7 10 -15 0 -9 9 -15 25 -15 16 0 25 -6 25 -15 0 -9 9 -15 25 -15
16 0 25 -6 25 -15 0 -9 9 -15 25 -15 18 0 25 -5 25 -20 0 -11 5 -20 10 -20 6
0 10 -7 10 -15 0 -9 9 -15 25 -15 16 0 25 -6 25 -15 0 -9 9 -15 25 -15 16 0
25 -6 25 -15 0 -9 9 -15 25 -15 16 0 25 -6 25 -15 0 -8 7 -15 15 -15 8 0 15
-7 15 -15 0 -9 9 -15 25 -15 18 0 25 -5 25 -20 0 -15 7 -20 25 -20 16 0 25 -6
25 -15 0 -8 5 -15 10 -15 6 0 10 -7 10 -15 0 -9 9 -15 25 -15 16 0 25 -6 25
-15 0 -9 9 -15 25 -15 16 0 25 -6 25 -15 0 -9 9 -15 25 -15 18 0 25 -5 25 -20
0 -11 5 -20 10 -20 6 0 10 -7 10 -15 0 -9 9 -15 25 -15 16 0 25 -6 25 -15 0
-9 9 -15 25 -15 16 0 25 -6 25 -15 0 -9 9 -15 25 -15 16 0 25 -6 25 -15 0 -8
7 -15 15 -15 8 0 15 -9 15 -20 0 -13 7 -20 20 -20 11 0 20 -7 20 -15 0 -9 9
-15 25 -15 16 0 25 -6 25 -15 0 -8 7 -15 15 -15 8 0 15 -7 15 -15 0 -9 9 -15
25 -15 16 0 25 -6 25 -15 0 -9 9 -15 25 -15 18 0 25 -5 25 -20 0 -15 7 -20 25
-20 16 0 25 -6 25 -15 0 -8 5 -15 10 -15 6 0 10 -7 10 -15 0 -9 9 -15 25 -15
16 0 25 -6 25 -15 0 -9 9 -15 25 -15 16 0 25 -6 25 -15 0 -9 9 -15 25 -15 18
0 25 -5 25 -20 0 -11 5 -20 10 -20 6 0 10 -7 10 -15 0 -9 9 -15 25 -15 16 0
25 -6 25 -15 0 -9 9 -15 25 -15 16 0 25 -6 25 -15 0 -9 9 -15 25 -15 16 0 25
-6 25 -15 0 -8 7 -15 15 -15 8 0 15 -9 15 -20 0 -15 7 -20 25 -20 16 0 25 -6
25 -15 0 -9 9 -15 25 -15 16 0 25 -6 25 -15 0 -9 9 -15 25 -15 16 0 25 -6 25
-15 0 -8 5 -15 10 -15 6 0 10 -7 10 -15 0 -9 9 -15 25 -15 18 0 25 -5 25 -20
0 -15 7 -20 25 -20 16 0 25 -6 25 -15 0 -9 9 -15 25 -15 16 0 25 -6 25 -15 0
-8 5 -15 10 -15 6 0 10 -7 10 -15 0 -9 9 -15 25 -15 16 0 25 -6 25 -15 0 -9 9
-15 25 -15 18 0 25 -5 25 -20 0 -11 7 -20 15 -20 8 0 15 -7 15 -15 0 -9 9 -15
25 -15 16 0 25 -6 25 -15 0 -8 9 -15 20 -15 11 0 20 -7 20 -15 0 -9 9 -15 25
-15 16 0 25 -6 25 -15 0 -8 7 -15 15 -15 8 0 15 -9 15 -20 0 -15 7 -20 25 -20
16 0 25 -6 25 -15 0 -9 9 -15 25 -15 16 0 25 -6 25 -15 0 -8 5 -15 10 -15 6 0
10 -7 10 -15 0 -9 9 -15 25 -15 16 0 25 -6 25 -15 0 -9 9 -15 25 -15 18 0 25
-5 25 -20 0 -15 7 -20 25 -20 16 0 25 -6 25 -15 0 -8 7 -15 15 -15 8 0 15 -7
15 -15 0 -8 9 -15 20 -15 11 0 20 -7 20 -15 0 -9 9 -15 25 -15 16 0 25 -6 25
-15 0 -8 7 -15 15 -15 8 0 15 -9 15 -20 0 -15 7 -20 25 -20 16 0 25 -6 25 -15
0 -10 11 -15 35 -15 l35 0 0 2190 c0 1453 -3 2190 -10 2190 -5 0 -10 7 -10 15
0 8 -7 15 -15 15 -8 0 -15 9 -15 20 0 15 -7 20 -25 20 -16 0 -25 6 -25 15 0 9
-9 15 -25 15 -16 0 -25 6 -25 15 0 9 -9 15 -25 15 -16 0 -25 6 -25 15 0 8 -4
15 -10 15 -5 0 -10 7 -10 15 0 9 -9 15 -25 15 -18 0 -25 5 -25 20 0 15 -7 20
-25 20 -16 0 -25 6 -25 15 0 9 -9 15 -25 15 -16 0 -25 6 -25 15 0 8 -4 15 -10
15 -5 0 -10 7 -10 15 0 9 -9 15 -25 15 -16 0 -25 6 -25 15 0 9 -9 15 -25 15
-18 0 -25 5 -25 20 0 11 -7 20 -15 20 -8 0 -15 7 -15 15 0 9 -9 15 -25 15 -16
0 -25 6 -25 15 0 9 -9 15 -25 15 -16 0 -25 6 -25 15 0 8 -9 15 -20 15 -11 0
-20 7 -20 15 0 9 -9 15 -25 15 -18 0 -25 5 -25 20 0 11 -7 20 -15 20 -8 0 -15
7 -15 15 0 9 -9 15 -25 15 -16 0 -25 6 -25 15 0 9 -9 15 -25 15 -16 0 -25 6
-25 15 0 8 -4 15 -10 15 -5 0 -10 7 -10 15 0 9 -9 15 -25 15 -18 0 -25 5 -25
20 0 15 -7 20 -25 20 -16 0 -25 6 -25 15 0 9 -9 15 -25 15 -16 0 -25 6 -25 15
0 8 -4 15 -10 15 -5 0 -10 7 -10 15 0 9 -9 15 -25 15 -16 0 -25 6 -25 15 0 9
-9 15 -25 15 -18 0 -25 5 -25 20 0 11 -7 20 -15 20 -8 0 -15 7 -15 15 0 9 -9
15 -25 15 -16 0 -25 6 -25 15 0 9 -9 15 -25 15 -16 0 -25 6 -25 15 0 9 -9 15
-25 15 -16 0 -25 6 -25 15 0 8 -4 15 -10 15 -5 0 -10 9 -10 20 0 15 -7 20 -25
20 -16 0 -25 6 -25 15 0 9 -9 15 -25 15 -16 0 -25 6 -25 15 0 8 -4 15 -10 15
-5 0 -10 7 -10 15 0 9 -9 15 -25 15 -16 0 -25 6 -25 15 0 9 -9 15 -25 15 -18
0 -25 5 -25 20 0 15 -7 20 -25 20 -16 0 -25 6 -25 15 0 8 -7 15 -15 15 -8 0
-15 7 -15 15 0 9 -9 15 -25 15 -16 0 -25 6 -25 15 0 9 -9 15 -25 15 -16 0 -25
6 -25 15 0 9 -9 15 -25 15 -18 0 -25 5 -25 20 0 11 -4 20 -10 20 -5 0 -10 7
-10 15 0 9 -9 15 -25 15 -16 0 -25 6 -25 15 0 9 -9 15 -25 15 -16 0 -25 6 -25
15 0 9 -9 15 -25 15 -16 0 -25 6 -25 15 0 8 -4 15 -10 15 -5 0 -10 9 -10 20 0
15 -7 20 -25 20 -16 0 -25 6 -25 15 0 9 -9 15 -25 15 -16 0 -25 6 -25 15 0 8
-7 15 -15 15 -8 0 -15 7 -15 15 0 9 -9 15 -25 15 -16 0 -25 6 -25 15 0 8 -9
15 -20 15 -13 0 -20 7 -20 20 0 15 -7 20 -25 20 -16 0 -25 6 -25 15 0 9 -9 15
-25 15 -16 0 -25 6 -25 15 0 8 -7 15 -15 15 -8 0 -15 7 -15 15 0 9 -9 15 -25
15 -16 0 -25 6 -25 15 0 9 -9 15 -25 15 -18 0 -25 5 -25 20 0 15 -7 20 -25 20
-16 0 -25 6 -25 15 0 8 -4 15 -10 15 -5 0 -10 7 -10 15 0 9 -9 15 -25 15 -16
0 -25 6 -25 15 0 9 -9 15 -25 15 -16 0 -25 6 -25 15 0 8 -4 15 -10 15 -5 0
-10 9 -10 20 0 15 -7 20 -25 20 -16 0 -25 6 -25 15 0 9 -9 15 -25 15 -16 0
-25 6 -25 15 0 9 -9 15 -25 15 -16 0 -25 6 -25 15 0 8 -7 15 -15 15 -8 0 -15
7 -15 15 0 9 -9 15 -25 15 -18 0 -25 5 -25 20 0 15 -7 20 -25 20 -16 0 -25 6
-25 15 0 8 -4 15 -10 15 -5 0 -10 7 -10 15 0 9 -9 15 -25 15 -16 0 -25 6 -25
15 0 9 -9 15 -25 15 -16 0 -25 6 -25 15 0 9 -9 15 -25 15 -18 0 -25 5 -25 20
0 11 -4 20 -10 20 -5 0 -10 7 -10 15 0 9 -9 15 -25 15 -16 0 -25 6 -25 15 0 9
-9 15 -25 15 -16 0 -25 6 -25 15 0 9 -9 15 -25 15 -16 0 -25 6 -25 15 0 8 -7
15 -15 15 -8 0 -15 9 -15 20 0 15 -7 20 -25 20 -16 0 -25 6 -25 15 0 8 -9 15
-20 15 -11 0 -20 7 -20 15 0 8 -7 15 -15 15 -8 0 -15 7 -15 15 0 9 -9 15 -25
15 -16 0 -25 6 -25 15 0 9 -9 15 -25 15 -16 0 -25 6 -25 15 0 9 -9 15 -25 15
-18 0 -25 5 -25 20 0 11 -4 20 -10 20 -5 0 -10 7 -10 15 0 9 -9 15 -25 15 -16
0 -25 6 -25 15 0 9 -9 15 -25 15 -16 0 -25 6 -25 15 0 9 -9 15 -25 15 -16 0
-25 6 -25 15 0 8 -4 15 -10 15 -5 0 -10 9 -10 20 0 15 -7 20 -25 20 -16 0 -25
6 -25 15 0 9 -9 15 -25 15 -16 0 -25 6 -25 15 0 9 -9 15 -25 15 -16 0 -25 6
-25 15 0 8 -7 15 -15 15 -8 0 -15 7 -15 15 0 9 -9 15 -25 15 -18 0 -25 5 -25
20 0 15 -7 20 -25 20 -16 0 -25 6 -25 15 0 9 -9 15 -25 15 -16 0 -25 6 -25 15
0 8 -4 15 -10 15 -5 0 -10 7 -10 15 0 9 -9 15 -25 15 -16 0 -25 6 -25 15 0 9
-9 15 -25 15 -18 0 -25 5 -25 20 0 15 -7 20 -25 20 -16 0 -25 6 -25 15 0 8 -4
15 -10 15 -5 0 -10 7 -10 15 0 9 -9 15 -25 15 -16 0 -25 6 -25 15 0 9 -9 15
-25 15 -16 0 -25 6 -25 15 0 8 -7 15 -15 15 -8 0 -15 9 -15 20 0 15 -7 20 -25
20 -16 0 -25 6 -25 15 0 9 -9 15 -25 15 -16 0 -25 6 -25 15 0 8 -9 15 -20 15
-11 0 -20 7 -20 15 0 8 -7 15 -15 15 -8 0 -15 7 -15 15 0 9 -9 15 -25 15 -18
0 -25 5 -25 20 0 15 -7 20 -25 20 -16 0 -25 6 -25 15 0 8 -4 15 -10 15 -5 0
-10 7 -10 15 0 9 -9 15 -25 15 -16 0 -25 6 -25 15 0 9 -9 15 -25 15 -16 0 -25
6 -25 15 0 9 -9 15 -25 15 -18 0 -25 5 -25 20 0 11 -7 20 -15 20 -8 0 -15 7
-15 15 0 9 -9 15 -25 15 -16 0 -25 6 -25 15 0 8 -9 15 -20 15 -20 0 -20 -7
-20 -2205z m240 1740 c0 -8 7 -15 15 -15 8 0 15 -7 15 -15 0 -9 9 -15 25 -15
16 0 25 -6 25 -15 0 -9 9 -15 25 -15 18 0 25 -5 25 -20 0 -11 5 -20 10 -20 6
0 10 -7 10 -15 0 -9 9 -15 25 -15 16 0 25 -6 25 -15 0 -9 9 -15 25 -15 16 0
25 -6 25 -15 0 -8 5 -15 10 -15 6 0 10 -7 10 -15 0 -9 9 -15 25 -15 18 0 25
-5 25 -20 0 -15 7 -20 25 -20 16 0 25 -6 25 -15 0 -9 9 -15 25 -15 16 0 25 -6
25 -15 0 -8 7 -15 15 -15 8 0 15 -7 15 -15 0 -9 9 -15 25 -15 16 0 25 -6 25
-15 0 -9 9 -15 25 -15 18 0 25 -5 25 -20 0 -11 5 -20 10 -20 6 0 10 -7 10 -15
0 -9 9 -15 25 -15 16 0 25 -6 25 -15 0 -9 9 -15 25 -15 16 0 25 -6 25 -15 0
-9 9 -15 25 -15 16 0 25 -6 25 -15 0 -8 5 -15 10 -15 6 0 10 -9 10 -20 0 -15
7 -20 25 -20 16 0 25 -6 25 -15 0 -9 9 -15 25 -15 16 0 25 -6 25 -15 0 -9 9
-15 25 -15 16 0 25 -6 25 -15 0 -9 9 -15 25 -15 16 0 25 -6 25 -15 0 -8 7 -15
15 -15 8 0 15 -7 15 -15 0 -8 9 -15 20 -15 13 0 20 -7 20 -20 0 -15 7 -20 25
-20 16 0 25 -6 25 -15 0 -8 7 -15 15 -15 8 0 15 -7 15 -15 0 -9 9 -15 25 -15
16 0 25 -6 25 -15 0 -9 9 -15 25 -15 16 0 25 -6 25 -15 0 -9 9 -15 25 -15 18
0 25 -5 25 -20 0 -11 5 -20 10 -20 6 0 10 -7 10 -15 0 -9 9 -15 25 -15 16 0
25 -6 25 -15 0 -9 9 -15 25 -15 16 0 25 -6 25 -15 0 -9 9 -15 25 -15 16 0 25
-6 25 -15 0 -8 5 -15 10 -15 6 0 10 -9 10 -20 0 -15 7 -20 25 -20 16 0 25 -6
25 -15 0 -9 9 -15 25 -15 16 0 25 -6 25 -15 0 -8 7 -15 15 -15 8 0 15 -7 15
-15 0 -9 9 -15 25 -15 16 0 25 -6 25 -15 0 -9 9 -15 25 -15 18 0 25 -5 25 -20
0 -15 7 -20 25 -20 16 0 25 -6 25 -15 0 -8 5 -15 10 -15 6 0 10 -7 10 -15 0
-9 9 -15 25 -15 16 0 25 -6 25 -15 0 -9 9 -15 25 -15 16 0 25 -6 25 -15 0 -9
9 -15 25 -15 18 0 25 -5 25 -20 0 -11 5 -20 10 -20 6 0 10 -7 10 -15 0 -9 9
-15 25 -15 16 0 25 -6 25 -15 0 -9 9 -15 25 -15 16 0 25 -6 25 -15 0 -8 7 -15
15 -15 8 0 15 -7 15 -15 0 -9 9 -15 25 -15 18 0 25 -5 25 -20 0 -15 7 -20 25
-20 16 0 25 -6 25 -15 0 -8 9 -15 20 -15 11 0 20 -7 20 -15 0 -8 7 -15 15 -15
8 0 15 -7 15 -15 0 -9 9 -15 25 -15 16 0 25 -6 25 -15 0 -9 9 -15 25 -15 18 0
25 -5 25 -20 0 -11 5 -20 10 -20 6 0 10 -7 10 -15 0 -9 9 -15 25 -15 16 0 25
-6 25 -15 0 -9 9 -15 25 -15 16 0 25 -6 25 -15 0 -9 9 -15 25 -15 16 0 25 -6
25 -15 0 -9 9 -15 25 -15 18 0 25 -5 25 -20 0 -11 5 -20 10 -20 6 0 10 -7 10
-15 0 -9 9 -15 25 -15 16 0 25 -6 25 -15 0 -9 9 -15 25 -15 16 0 25 -6 25 -15
0 -8 7 -15 15 -15 8 0 15 -7 15 -15 0 -9 9 -15 25 -15 18 0 25 -5 25 -20 0
-15 7 -20 25 -20 16 0 25 -6 25 -15 0 -9 9 -15 25 -15 16 0 25 -6 25 -15 0 -9
9 -15 25 -15 16 0 25 -6 25 -15 0 -8 5 -15 10 -15 6 0 10 -7 10 -15 0 -9 9
-15 25 -15 18 0 25 -5 25 -20 0 -15 7 -20 25 -20 16 0 25 -6 25 -15 0 -9 9
-15 25 -15 16 0 25 -6 25 -15 0 -8 5 -15 10 -15 6 0 10 -7 10 -15 0 -9 9 -15
25 -15 16 0 25 -6 25 -15 0 -9 9 -15 25 -15 18 0 25 -5 25 -20 0 -11 7 -20 15
-20 8 0 15 -7 15 -15 0 -9 9 -15 25 -15 16 0 25 -6 25 -15 0 -9 9 -15 25 -15
16 0 25 -6 25 -15 0 -8 5 -15 10 -15 6 0 10 -7 10 -15 0 -9 9 -15 25 -15 18 0
25 -5 25 -20 0 -15 7 -20 25 -20 16 0 25 -6 25 -15 0 -9 9 -15 25 -15 16 0 25
-6 25 -15 0 -8 5 -15 10 -15 6 0 10 -7 10 -15 0 -9 9 -15 25 -15 16 0 25 -6
25 -15 0 -9 9 -15 25 -15 18 0 25 -5 25 -20 0 -11 7 -20 15 -20 8 0 15 -7 15
-15 0 -9 9 -15 25 -15 16 0 25 -6 25 -15 0 -8 9 -15 20 -15 11 0 20 -7 20 -15
0 -9 9 -15 25 -15 16 0 25 -6 25 -15 0 -8 7 -15 15 -15 8 0 15 -9 15 -20 0
-15 7 -20 25 -20 16 0 25 -6 25 -15 0 -9 9 -15 25 -15 16 0 25 -6 25 -15 0 -8
5 -15 10 -15 6 0 10 -7 10 -15 0 -9 9 -15 25 -15 16 0 25 -6 25 -15 0 -9 9
-15 25 -15 18 0 25 -5 25 -20 0 -15 7 -20 25 -20 16 0 25 -6 25 -15 0 -9 9
-15 25 -15 16 0 25 -6 25 -15 0 -8 5 -15 10 -15 6 0 10 -7 10 -15 0 -9 9 -15
25 -15 16 0 25 -6 25 -15 0 -9 9 -15 25 -15 18 0 25 -5 25 -20 0 -15 7 -20 25
-20 16 0 25 -6 25 -15 0 -8 7 -15 15 -15 8 0 15 -7 15 -15 0 -9 9 -15 25 -15
16 0 25 -6 25 -15 0 -9 9 -15 25 -15 16 0 25 -6 25 -15 0 -9 9 -15 25 -15 16
0 25 -6 25 -15 0 -8 5 -15 10 -15 7 0 10 -642 10 -1905 0 -1263 -3 -1905 -10
-1905 -5 0 -10 7 -10 15 0 9 -9 15 -25 15 -16 0 -25 6 -25 15 0 9 -9 15 -25
15 -18 0 -25 5 -25 20 0 11 -7 20 -15 20 -8 0 -15 7 -15 15 0 9 -9 15 -25 15
-16 0 -25 6 -25 15 0 9 -9 15 -25 15 -16 0 -25 6 -25 15 0 8 -4 15 -10 15 -5
0 -10 7 -10 15 0 9 -9 15 -25 15 -18 0 -25 5 -25 20 0 15 -7 20 -25 20 -16 0
-25 6 -25 15 0 9 -9 15 -25 15 -16 0 -25 6 -25 15 0 8 -4 15 -10 15 -5 0 -10
7 -10 15 0 9 -9 15 -25 15 -16 0 -25 6 -25 15 0 9 -9 15 -25 15 -18 0 -25 5
-25 20 0 15 -7 20 -25 20 -16 0 -25 6 -25 15 0 8 -7 15 -15 15 -8 0 -15 7 -15
15 0 9 -9 15 -25 15 -16 0 -25 6 -25 15 0 9 -9 15 -25 15 -16 0 -25 6 -25 15
0 9 -9 15 -25 15 -18 0 -25 5 -25 20 0 11 -4 20 -10 20 -5 0 -10 7 -10 15 0 9
-9 15 -25 15 -16 0 -25 6 -25 15 0 9 -9 15 -25 15 -16 0 -25 6 -25 15 0 9 -9
15 -25 15 -16 0 -25 6 -25 15 0 8 -4 15 -10 15 -5 0 -10 9 -10 20 0 15 -7 20
-25 20 -16 0 -25 6 -25 15 0 9 -9 15 -25 15 -16 0 -25 6 -25 15 0 9 -9 15 -25
15 -16 0 -25 6 -25 15 0 8 -7 15 -15 15 -8 0 -15 7 -15 15 0 8 -9 15 -20 15
-13 0 -20 7 -20 20 0 15 -7 20 -25 20 -16 0 -25 6 -25 15 0 9 -9 15 -25 15
-16 0 -25 6 -25 15 0 8 -7 15 -15 15 -8 0 -15 7 -15 15 0 9 -9 15 -25 15 -16
0 -25 6 -25 15 0 9 -9 15 -25 15 -18 0 -25 5 -25 20 0 11 -4 20 -10 20 -5 0
-10 7 -10 15 0 9 -9 15 -25 15 -16 0 -25 6 -25 15 0 9 -9 15 -25 15 -16 0 -25
6 -25 15 0 9 -9 15 -25 15 -16 0 -25 6 -25 15 0 8 -4 15 -10 15 -5 0 -10 9
-10 20 0 15 -7 20 -25 20 -16 0 -25 6 -25 15 0 9 -9 15 -25 15 -16 0 -25 6
-25 15 0 9 -9 15 -25 15 -16 0 -25 6 -25 15 0 8 -7 15 -15 15 -8 0 -15 7 -15
15 0 9 -9 15 -25 15 -16 0 -25 6 -25 15 0 9 -9 15 -25 15 -18 0 -25 5 -25 20
0 11 -4 20 -10 20 -5 0 -10 7 -10 15 0 9 -9 15 -25 15 -16 0 -25 6 -25 15 0 9
-9 15 -25 15 -16 0 -25 6 -25 15 0 8 -4 15 -10 15 -5 0 -10 7 -10 15 0 9 -9
15 -25 15 -18 0 -25 5 -25 20 0 15 -7 20 -25 20 -16 0 -25 6 -25 15 0 9 -9 15
-25 15 -16 0 -25 6 -25 15 0 8 -7 15 -15 15 -8 0 -15 7 -15 15 0 9 -9 15 -25
15 -16 0 -25 6 -25 15 0 9 -9 15 -25 15 -18 0 -25 5 -25 20 0 13 -7 20 -20 20
-11 0 -20 7 -20 15 0 8 -7 15 -15 15 -8 0 -15 7 -15 15 0 9 -9 15 -25 15 -16
0 -25 6 -25 15 0 9 -9 15 -25 15 -16 0 -25 6 -25 15 0 9 -9 15 -25 15 -18 0
-25 5 -25 20 0 11 -4 20 -10 20 -5 0 -10 7 -10 15 0 9 -9 15 -25 15 -16 0 -25
6 -25 15 0 9 -9 15 -25 15 -16 0 -25 6 -25 15 0 9 -9 15 -25 15 -16 0 -25 6
-25 15 0 8 -7 15 -15 15 -8 0 -15 9 -15 20 0 13 -7 20 -20 20 -11 0 -20 7 -20
15 0 9 -9 15 -25 15 -16 0 -25 6 -25 15 0 9 -9 15 -25 15 -16 0 -25 6 -25 15
0 8 -7 15 -15 15 -8 0 -15 7 -15 15 0 9 -9 15 -25 15 -18 0 -25 5 -25 20 0 15
-7 20 -25 20 -16 0 -25 6 -25 15 0 9 -9 15 -25 15 -16 0 -25 6 -25 15 0 8 -4
15 -10 15 -5 0 -10 7 -10 15 0 9 -9 15 -25 15 -16 0 -25 6 -25 15 0 9 -9 15
-25 15 -18 0 -25 5 -25 20 0 15 -7 20 -25 20 -16 0 -25 6 -25 15 0 8 -4 15
-10 15 -5 0 -10 7 -10 15 0 9 -9 15 -25 15 -16 0 -25 6 -25 15 0 9 -9 15 -25
15 -16 0 -25 6 -25 15 0 8 -7 15 -15 15 -8 0 -15 9 -15 20 0 15 -7 20 -25 20
-16 0 -25 6 -25 15 0 9 -9 15 -25 15 -16 0 -25 6 -25 15 0 8 -9 15 -20 15 -11
0 -20 7 -20 15 0 8 -7 15 -15 15 -8 0 -15 7 -15 15 0 9 -9 15 -25 15 -18 0
-25 5 -25 20 0 15 -7 20 -25 20 -16 0 -25 6 -25 15 0 8 -4 15 -10 15 -5 0 -10
7 -10 15 0 9 -9 15 -25 15 -16 0 -25 6 -25 15 0 9 -9 15 -25 15 -16 0 -25 6
-25 15 0 9 -9 15 -25 15 -18 0 -25 5 -25 20 0 11 -7 20 -15 20 -8 0 -15 7 -15
15 0 9 -9 15 -25 15 -16 0 -25 6 -25 15 0 8 -9 15 -20 15 -11 0 -20 7 -20 15
0 8 -7 15 -15 15 -8 0 -15 7 -15 15 0 9 -9 15 -25 15 -18 0 -25 5 -25 20 0 15
-7 20 -25 20 -16 0 -25 6 -25 15 0 9 -9 15 -25 15 -16 0 -25 6 -25 15 0 8 -4
15 -10 15 -5 0 -10 7 -10 15 0 9 -9 15 -25 15 -16 0 -25 6 -25 15 0 9 -9 15
-25 15 -18 0 -25 5 -25 20 0 15 -7 20 -25 20 -16 0 -25 6 -25 15 0 8 -4 15
-10 15 -5 0 -10 7 -10 15 0 9 -9 15 -25 15 -16 0 -25 6 -25 15 0 9 -9 15 -25
15 -16 0 -25 6 -25 15 0 9 -9 15 -25 15 -18 0 -25 5 -25 20 0 15 -7 20 -25 20
-21 0 -25 5 -25 30 0 20 -5 30 -15 30 -13 0 -15 213 -15 1855 0 1642 2 1855
15 1855 8 0 15 7 15 15 0 8 -7 15 -15 15 -8 0 -15 7 -15 15 0 9 9 15 25 15 16
0 25 -6 25 -15z"/>
<path d="M29990 24395 c0 -1953 2 -2205 15 -2205 8 0 15 -7 15 -15 0 -9 9 -15
25 -15 18 0 25 -5 25 -20 0 -13 7 -20 20 -20 11 0 20 -7 20 -15 0 -9 9 -15 25
-15 16 0 25 -6 25 -15 0 -8 7 -15 15 -15 8 0 15 -7 15 -15 0 -9 9 -15 25 -15
16 0 25 -6 25 -15 0 -9 9 -15 25 -15 18 0 25 -5 25 -20 0 -15 7 -20 25 -20 16
0 25 -6 25 -15 0 -9 9 -15 25 -15 16 0 25 -6 25 -15 0 -8 5 -15 10 -15 6 0 10
-7 10 -15 0 -9 9 -15 25 -15 16 0 25 -6 25 -15 0 -9 9 -15 25 -15 18 0 25 -5
25 -20 0 -11 5 -20 10 -20 6 0 10 -7 10 -15 0 -9 9 -15 25 -15 16 0 25 -6 25
-15 0 -9 9 -15 25 -15 16 0 25 -6 25 -15 0 -9 9 -15 25 -15 16 0 25 -6 25 -15
0 -8 7 -15 15 -15 8 0 15 -9 15 -20 0 -15 7 -20 25 -20 16 0 25 -6 25 -15 0
-9 9 -15 25 -15 16 0 25 -6 25 -15 0 -8 9 -15 20 -15 11 0 20 -7 20 -15 0 -8
7 -15 15 -15 8 0 15 -7 15 -15 0 -9 9 -15 25 -15 18 0 25 -5 25 -20 0 -15 7
-20 25 -20 16 0 25 -6 25 -15 0 -9 9 -15 25 -15 16 0 25 -6 25 -15 0 -8 5 -15
10 -15 6 0 10 -7 10 -15 0 -9 9 -15 25 -15 16 0 25 -6 25 -15 0 -9 9 -15 25
-15 18 0 25 -5 25 -20 0 -11 7 -20 15 -20 8 0 15 -7 15 -15 0 -9 9 -15 25 -15
16 0 25 -6 25 -15 0 -8 9 -15 20 -15 11 0 20 -7 20 -15 0 -9 9 -15 25 -15 16
0 25 -6 25 -15 0 -8 7 -15 15 -15 8 0 15 -9 15 -20 0 -15 7 -20 25 -20 16 0
25 -6 25 -15 0 -9 9 -15 25 -15 16 0 25 -6 25 -15 0 -8 5 -15 10 -15 6 0 10
-7 10 -15 0 -9 9 -15 25 -15 16 0 25 -6 25 -15 0 -9 9 -15 25 -15 18 0 25 -5
25 -20 0 -15 7 -20 25 -20 16 0 25 -6 25 -15 0 -8 5 -15 10 -15 6 0 10 -7 10
-15 0 -9 9 -15 25 -15 16 0 25 -6 25 -15 0 -9 9 -15 25 -15 16 0 25 -6 25 -15
0 -9 9 -15 25 -15 18 0 25 -5 25 -20 0 -11 7 -20 15 -20 8 0 15 -7 15 -15 0
-9 9 -15 25 -15 16 0 25 -6 25 -15 0 -9 9 -15 25 -15 16 0 25 -6 25 -15 0 -9
9 -15 25 -15 16 0 25 -6 25 -15 0 -8 5 -15 10 -15 6 0 10 -9 10 -20 0 -15 7
-20 25 -20 16 0 25 -6 25 -15 0 -9 9 -15 25 -15 16 0 25 -6 25 -15 0 -9 9 -15
25 -15 16 0 25 -6 25 -15 0 -8 5 -15 10 -15 6 0 10 -7 10 -15 0 -9 9 -15 25
-15 18 0 25 -5 25 -20 0 -15 7 -20 25 -20 16 0 25 -6 25 -15 0 -8 7 -15 15
-15 8 0 15 -7 15 -15 0 -9 9 -15 25 -15 16 0 25 -6 25 -15 0 -9 9 -15 25 -15
16 0 25 -6 25 -15 0 -8 9 -15 20 -15 13 0 20 -7 20 -20 0 -11 7 -20 15 -20 8
0 15 -7 15 -15 0 -9 9 -15 25 -15 16 0 25 -6 25 -15 0 -9 9 -15 25 -15 16 0
25 -6 25 -15 0 -9 9 -15 25 -15 16 0 25 -6 25 -15 0 -8 5 -15 10 -15 6 0 10
-7 10 -15 0 -9 9 -15 25 -15 18 0 25 -5 25 -20 0 -15 7 -20 25 -20 16 0 25 -6
25 -15 0 -8 7 -15 15 -15 8 0 15 -7 15 -15 0 -8 9 -15 20 -15 11 0 20 -7 20
-15 0 -9 9 -15 25 -15 16 0 25 -6 25 -15 0 -9 9 -15 25 -15 18 0 25 -5 25 -20
0 -11 7 -20 15 -20 8 0 15 -7 15 -15 0 -9 9 -15 25 -15 16 0 25 -6 25 -15 0
-9 9 -15 25 -15 16 0 25 -6 25 -15 0 -9 9 -15 25 -15 16 0 25 -6 25 -15 0 -8
5 -15 10 -15 6 0 10 -9 10 -20 0 -15 7 -20 25 -20 16 0 25 -6 25 -15 0 -9 9
-15 25 -15 16 0 25 -6 25 -15 0 -8 5 -15 10 -15 6 0 10 -7 10 -15 0 -9 9 -15
25 -15 16 0 25 -6 25 -15 0 -9 9 -15 25 -15 18 0 25 -5 25 -20 0 -15 7 -20 25
-20 16 0 25 -6 25 -15 0 -8 7 -15 15 -15 8 0 15 -7 15 -15 0 -9 9 -15 25 -15
16 0 25 -6 25 -15 0 -9 9 -15 25 -15 16 0 25 -6 25 -15 0 -9 9 -15 25 -15 18
0 25 -5 25 -20 0 -11 5 -20 10 -20 6 0 10 -7 10 -15 0 -9 9 -15 25 -15 16 0
25 -6 25 -15 0 -9 9 -15 25 -15 16 0 25 -6 25 -15 0 -9 9 -15 25 -15 16 0 25
-6 25 -15 0 -8 5 -15 10 -15 6 0 10 -9 10 -20 0 -15 7 -20 25 -20 16 0 25 -6
25 -15 0 -9 9 -15 25 -15 16 0 25 -6 25 -15 0 -9 9 -15 25 -15 16 0 25 -6 25
-15 0 -8 7 -15 15 -15 8 0 15 -7 15 -15 0 -8 9 -15 20 -15 13 0 20 -7 20 -20
0 -15 7 -20 25 -20 16 0 25 -6 25 -15 0 -9 9 -15 25 -15 16 0 25 -6 25 -15 0
-8 7 -15 15 -15 8 0 15 -7 15 -15 0 -9 9 -15 25 -15 16 0 25 -6 25 -15 0 -9 9
-15 25 -15 18 0 25 -5 25 -20 0 -11 5 -20 10 -20 6 0 10 -7 10 -15 0 -9 9 -15
25 -15 16 0 25 -6 25 -15 0 -9 9 -15 25 -15 16 0 25 -6 25 -15 0 -9 9 -15 25
-15 16 0 25 -6 25 -15 0 -8 5 -15 10 -15 6 0 10 -9 10 -20 0 -15 7 -20 25 -20
16 0 25 -6 25 -15 0 -9 9 -15 25 -15 16 0 25 -6 25 -15 0 -8 7 -15 15 -15 8 0
15 -7 15 -15 0 -9 9 -15 25 -15 16 0 25 -6 25 -15 0 -9 9 -15 25 -15 18 0 25
-5 25 -20 0 -15 7 -20 25 -20 16 0 25 -6 25 -15 0 -8 5 -15 10 -15 6 0 10 -7
10 -15 0 -9 9 -15 25 -15 16 0 25 -6 25 -15 0 -9 9 -15 25 -15 16 0 25 -6 25
-15 0 -8 5 -15 10 -15 6 0 10 -9 10 -20 0 -15 7 -20 25 -20 16 0 25 -6 25 -15
0 -11 11 -15 40 -15 l40 0 0 2190 c0 1940 -2 2190 -15 2190 -8 0 -15 7 -15 15
0 8 -4 15 -10 15 -5 0 -10 9 -10 20 0 15 -7 20 -25 20 -16 0 -25 6 -25 15 0 9
-9 15 -25 15 -16 0 -25 6 -25 15 0 9 -9 15 -25 15 -16 0 -25 6 -25 15 0 8 -4
15 -10 15 -5 0 -10 7 -10 15 0 9 -9 15 -25 15 -18 0 -25 5 -25 20 0 15 -7 20
-25 20 -16 0 -25 6 -25 15 0 9 -9 15 -25 15 -16 0 -25 6 -25 15 0 8 -7 15 -15
15 -8 0 -15 7 -15 15 0 9 -9 15 -25 15 -16 0 -25 6 -25 15 0 9 -9 15 -25 15
-18 0 -25 5 -25 20 0 11 -4 20 -10 20 -5 0 -10 7 -10 15 0 9 -9 15 -25 15 -16
0 -25 6 -25 15 0 9 -9 15 -25 15 -16 0 -25 6 -25 15 0 9 -9 15 -25 15 -16 0
-25 6 -25 15 0 9 -9 15 -25 15 -18 0 -25 5 -25 20 0 11 -4 20 -10 20 -5 0 -10
7 -10 15 0 9 -9 15 -25 15 -16 0 -25 6 -25 15 0 9 -9 15 -25 15 -16 0 -25 6
-25 15 0 8 -7 15 -15 15 -8 0 -15 7 -15 15 0 9 -9 15 -25 15 -18 0 -25 5 -25
20 0 15 -7 20 -25 20 -16 0 -25 6 -25 15 0 8 -9 15 -20 15 -11 0 -20 7 -20 15
0 8 -7 15 -15 15 -8 0 -15 7 -15 15 0 9 -9 15 -25 15 -16 0 -25 6 -25 15 0 9
-9 15 -25 15 -18 0 -25 5 -25 20 0 11 -4 20 -10 20 -5 0 -10 7 -10 15 0 9 -9
15 -25 15 -16 0 -25 6 -25 15 0 9 -9 15 -25 15 -16 0 -25 6 -25 15 0 9 -9 15
-25 15 -16 0 -25 6 -25 15 0 8 -7 15 -15 15 -8 0 -15 9 -15 20 0 13 -7 20 -20
20 -11 0 -20 7 -20 15 0 9 -9 15 -25 15 -16 0 -25 6 -25 15 0 8 -7 15 -15 15
-8 0 -15 7 -15 15 0 9 -9 15 -25 15 -16 0 -25 6 -25 15 0 9 -9 15 -25 15 -18
0 -25 5 -25 20 0 15 -7 20 -25 20 -16 0 -25 6 -25 15 0 8 -4 15 -10 15 -5 0
-10 7 -10 15 0 9 -9 15 -25 15 -16 0 -25 6 -25 15 0 9 -9 15 -25 15 -16 0 -25
6 -25 15 0 9 -9 15 -25 15 -18 0 -25 5 -25 20 0 11 -4 20 -10 20 -5 0 -10 7
-10 15 0 9 -9 15 -25 15 -16 0 -25 6 -25 15 0 9 -9 15 -25 15 -16 0 -25 6 -25
15 0 9 -9 15 -25 15 -16 0 -25 6 -25 15 0 8 -7 15 -15 15 -8 0 -15 9 -15 20 0
15 -7 20 -25 20 -16 0 -25 6 -25 15 0 9 -9 15 -25 15 -16 0 -25 6 -25 15 0 8
-4 15 -10 15 -5 0 -10 7 -10 15 0 9 -9 15 -25 15 -16 0 -25 6 -25 15 0 9 -9
15 -25 15 -18 0 -25 5 -25 20 0 15 -7 20 -25 20 -16 0 -25 6 -25 15 0 9 -9 15
-25 15 -16 0 -25 6 -25 15 0 8 -4 15 -10 15 -5 0 -10 7 -10 15 0 9 -9 15 -25
15 -16 0 -25 6 -25 15 0 9 -9 15 -25 15 -18 0 -25 5 -25 20 0 15 -7 20 -25 20
-16 0 -25 6 -25 15 0 8 -7 15 -15 15 -8 0 -15 7 -15 15 0 8 -9 15 -20 15 -11
0 -20 7 -20 15 0 9 -9 15 -25 15 -16 0 -25 6 -25 15 0 8 -7 15 -15 15 -8 0
-15 9 -15 20 0 15 -7 20 -25 20 -16 0 -25 6 -25 15 0 9 -9 15 -25 15 -16 0
-25 6 -25 15 0 9 -9 15 -25 15 -16 0 -25 6 -25 15 0 8 -4 15 -10 15 -5 0 -10
7 -10 15 0 9 -9 15 -25 15 -18 0 -25 5 -25 20 0 15 -7 20 -25 20 -16 0 -25 6
-25 15 0 8 -7 15 -15 15 -8 0 -15 7 -15 15 0 8 -9 15 -20 15 -11 0 -20 7 -20
15 0 9 -9 15 -25 15 -16 0 -25 6 -25 15 0 9 -9 15 -25 15 -18 0 -25 5 -25 20
0 11 -7 20 -15 20 -8 0 -15 7 -15 15 0 9 -9 15 -25 15 -16 0 -25 6 -25 15 0 9
-9 15 -25 15 -16 0 -25 6 -25 15 0 9 -9 15 -25 15 -16 0 -25 6 -25 15 0 8 -4
15 -10 15 -5 0 -10 9 -10 20 0 15 -7 20 -25 20 -16 0 -25 6 -25 15 0 9 -9 15
-25 15 -16 0 -25 6 -25 15 0 8 -4 15 -10 15 -5 0 -10 7 -10 15 0 9 -9 15 -25
15 -16 0 -25 6 -25 15 0 9 -9 15 -25 15 -16 0 -25 6 -25 15 0 9 -9 15 -25 15
-18 0 -25 5 -25 20 0 11 -7 20 -15 20 -8 0 -15 7 -15 15 0 9 -9 15 -25 15 -16
0 -25 6 -25 15 0 9 -9 15 -25 15 -16 0 -25 6 -25 15 0 8 -9 15 -20 15 -11 0
-20 7 -20 15 0 8 -7 15 -15 15 -8 0 -15 9 -15 20 0 15 -7 20 -25 20 -16 0 -25
6 -25 15 0 9 -9 15 -25 15 -16 0 -25 6 -25 15 0 9 -9 15 -25 15 -16 0 -25 6
-25 15 0 8 -4 15 -10 15 -5 0 -10 7 -10 15 0 9 -9 15 -25 15 -18 0 -25 5 -25
20 0 15 -7 20 -25 20 -16 0 -25 6 -25 15 0 9 -9 15 -25 15 -16 0 -25 6 -25 15
0 8 -7 15 -15 15 -8 0 -15 7 -15 15 0 8 -9 15 -20 15 -11 0 -20 7 -20 15 0 9
-9 15 -25 15 -18 0 -25 5 -25 20 0 15 -7 20 -25 20 -16 0 -25 6 -25 15 0 8 -7
15 -15 15 -8 0 -15 7 -15 15 0 9 -9 15 -25 15 -16 0 -25 6 -25 15 0 9 -9 15
-25 15 -16 0 -25 6 -25 15 0 8 -4 15 -10 15 -5 0 -10 9 -10 20 0 15 -7 20 -25
20 -16 0 -25 6 -25 15 0 9 -9 15 -25 15 -16 0 -25 6 -25 15 0 9 -9 15 -25 15
-16 0 -25 6 -25 15 0 8 -4 15 -10 15 -5 0 -10 7 -10 15 0 9 -9 15 -25 15 -18
0 -25 5 -25 20 0 15 -7 20 -25 20 -16 0 -25 6 -25 15 0 8 -7 15 -15 15 -8 0
-15 7 -15 15 0 9 -9 15 -25 15 -16 0 -25 6 -25 15 0 9 -9 15 -25 15 -16 0 -25
6 -25 15 0 9 -9 15 -25 15 -18 0 -25 5 -25 20 0 11 -4 20 -10 20 -5 0 -10 7
-10 15 0 9 -9 15 -25 15 -16 0 -25 6 -25 15 0 9 -9 15 -25 15 l-25 0 0 -2205z
m250 1740 c0 -8 5 -15 10 -15 6 0 10 -7 10 -15 0 -9 9 -15 25 -15 16 0 25 -6
25 -15 0 -9 9 -15 25 -15 18 0 25 -5 25 -20 0 -11 7 -20 15 -20 8 0 15 -7 15
-15 0 -9 9 -15 25 -15 16 0 25 -6 25 -15 0 -8 9 -15 20 -15 11 0 20 -7 20 -15
0 -8 7 -15 15 -15 8 0 15 -7 15 -15 0 -9 9 -15 25 -15 18 0 25 -5 25 -20 0
-15 7 -20 25 -20 16 0 25 -6 25 -15 0 -9 9 -15 25 -15 16 0 25 -6 25 -15 0 -8
5 -15 10 -15 6 0 10 -7 10 -15 0 -9 9 -15 25 -15 16 0 25 -6 25 -15 0 -9 9
-15 25 -15 18 0 25 -5 25 -20 0 -11 7 -20 15 -20 8 0 15 -7 15 -15 0 -8 9 -15
20 -15 11 0 20 -7 20 -15 0 -9 9 -15 25 -15 16 0 25 -6 25 -15 0 -9 9 -15 25
-15 16 0 25 -6 25 -15 0 -8 7 -15 15 -15 8 0 15 -9 15 -20 0 -15 7 -20 25 -20
16 0 25 -6 25 -15 0 -9 9 -15 25 -15 16 0 25 -6 25 -15 0 -9 9 -15 25 -15 16
0 25 -6 25 -15 0 -9 9 -15 25 -15 16 0 25 -6 25 -15 0 -8 5 -15 10 -15 6 0 10
-7 10 -15 0 -9 9 -15 25 -15 18 0 25 -5 25 -20 0 -15 7 -20 25 -20 16 0 25 -6
25 -15 0 -8 5 -15 10 -15 6 0 10 -7 10 -15 0 -9 9 -15 25 -15 16 0 25 -6 25
-15 0 -9 9 -15 25 -15 16 0 25 -6 25 -15 0 -9 9 -15 25 -15 18 0 25 -5 25 -20
0 -11 7 -20 15 -20 8 0 15 -7 15 -15 0 -9 9 -15 25 -15 16 0 25 -6 25 -15 0
-9 9 -15 25 -15 16 0 25 -6 25 -15 0 -8 9 -15 20 -15 11 0 20 -7 20 -15 0 -8
7 -15 15 -15 8 0 15 -9 15 -20 0 -15 7 -20 25 -20 16 0 25 -6 25 -15 0 -9 9
-15 25 -15 16 0 25 -6 25 -15 0 -8 5 -15 10 -15 6 0 10 -7 10 -15 0 -9 9 -15
25 -15 16 0 25 -6 25 -15 0 -9 9 -15 25 -15 18 0 25 -5 25 -20 0 -15 7 -20 25
-20 16 0 25 -6 25 -15 0 -8 7 -15 15 -15 8 0 15 -7 15 -15 0 -8 9 -15 20 -15
11 0 20 -7 20 -15 0 -9 9 -15 25 -15 16 0 25 -6 25 -15 0 -9 9 -15 25 -15 18
0 25 -5 25 -20 0 -11 7 -20 15 -20 8 0 15 -7 15 -15 0 -9 9 -15 25 -15 16 0
25 -6 25 -15 0 -9 9 -15 25 -15 16 0 25 -6 25 -15 0 -8 5 -15 10 -15 6 0 10
-7 10 -15 0 -9 9 -15 25 -15 18 0 25 -5 25 -20 0 -15 7 -20 25 -20 16 0 25 -6
25 -15 0 -9 9 -15 25 -15 16 0 25 -6 25 -15 0 -8 5 -15 10 -15 6 0 10 -7 10
-15 0 -9 9 -15 25 -15 16 0 25 -6 25 -15 0 -9 9 -15 25 -15 18 0 25 -5 25 -20
0 -11 7 -20 15 -20 8 0 15 -7 15 -15 0 -9 9 -15 25 -15 16 0 25 -6 25 -15 0
-9 9 -15 25 -15 16 0 25 -6 25 -15 0 -9 9 -15 25 -15 16 0 25 -6 25 -15 0 -9
9 -15 25 -15 18 0 25 -5 25 -20 0 -11 5 -20 10 -20 6 0 10 -7 10 -15 0 -9 9
-15 25 -15 16 0 25 -6 25 -15 0 -9 9 -15 25 -15 16 0 25 -6 25 -15 0 -8 5 -15
10 -15 6 0 10 -7 10 -15 0 -9 9 -15 25 -15 18 0 25 -5 25 -20 0 -15 7 -20 25
-20 16 0 25 -6 25 -15 0 -9 9 -15 25 -15 16 0 25 -6 25 -15 0 -9 9 -15 25 -15
16 0 25 -6 25 -15 0 -8 7 -15 15 -15 8 0 15 -7 15 -15 0 -9 9 -15 25 -15 18 0
25 -5 25 -20 0 -13 7 -20 20 -20 11 0 20 -7 20 -15 0 -9 9 -15 25 -15 16 0 25
-6 25 -15 0 -8 7 -15 15 -15 8 0 15 -7 15 -15 0 -9 9 -15 25 -15 16 0 25 -6
25 -15 0 -9 9 -15 25 -15 18 0 25 -5 25 -20 0 -11 5 -20 10 -20 6 0 10 -7 10
-15 0 -9 9 -15 25 -15 16 0 25 -6 25 -15 0 -9 9 -15 25 -15 16 0 25 -6 25 -15
0 -8 7 -15 15 -15 8 0 15 -7 15 -15 0 -8 9 -15 20 -15 13 0 20 -7 20 -20 0
-15 7 -20 25 -20 16 0 25 -6 25 -15 0 -9 9 -15 25 -15 16 0 25 -6 25 -15 0 -8
7 -15 15 -15 8 0 15 -7 15 -15 0 -9 9 -15 25 -15 16 0 25 -6 25 -15 0 -9 9
-15 25 -15 18 0 25 -5 25 -20 0 -11 5 -20 10 -20 6 0 10 -7 10 -15 0 -9 9 -15
25 -15 16 0 25 -6 25 -15 0 -9 9 -15 25 -15 16 0 25 -6 25 -15 0 -9 9 -15 25
-15 16 0 25 -6 25 -15 0 -8 5 -15 10 -15 6 0 10 -9 10 -20 0 -15 7 -20 25 -20
16 0 25 -6 25 -15 0 -9 9 -15 25 -15 16 0 25 -6 25 -15 0 -8 7 -15 15 -15 8 0
15 -7 15 -15 0 -9 9 -15 25 -15 16 0 25 -6 25 -15 0 -9 9 -15 25 -15 18 0 25
-5 25 -20 0 -15 7 -20 25 -20 16 0 25 -6 25 -15 0 -9 9 -15 25 -15 16 0 25 -6
25 -15 0 -8 5 -15 10 -15 6 0 10 -7 10 -15 0 -9 9 -15 25 -15 16 0 25 -6 25
-15 0 -9 9 -15 25 -15 18 0 25 -5 25 -20 0 -15 7 -20 25 -20 16 0 25 -6 25
-15 0 -8 5 -15 10 -15 6 0 10 -7 10 -15 0 -9 9 -15 25 -15 16 0 25 -6 25 -15
0 -9 9 -15 25 -15 16 0 25 -6 25 -15 0 -9 9 -15 25 -15 16 0 25 -6 25 -15 0
-8 7 -15 15 -15 13 0 15 -218 15 -1905 0 -1687 -2 -1905 -15 -1905 -8 0 -15 7
-15 15 0 9 -9 15 -25 15 -16 0 -25 6 -25 15 0 9 -9 15 -25 15 -18 0 -25 5 -25
20 0 11 -4 20 -10 20 -5 0 -10 7 -10 15 0 9 -9 15 -25 15 -16 0 -25 6 -25 15
0 9 -9 15 -25 15 -16 0 -25 6 -25 15 0 8 -7 15 -15 15 -8 0 -15 7 -15 15 0 9
-9 15 -25 15 -18 0 -25 5 -25 20 0 13 -7 20 -20 20 -11 0 -20 7 -20 15 0 9 -9
15 -25 15 -16 0 -25 6 -25 15 0 8 -7 15 -15 15 -8 0 -15 7 -15 15 0 9 -9 15
-25 15 -16 0 -25 6 -25 15 0 9 -9 15 -25 15 -18 0 -25 5 -25 20 0 15 -7 20
-25 20 -16 0 -25 6 -25 15 0 8 -4 15 -10 15 -5 0 -10 7 -10 15 0 9 -9 15 -25
15 -16 0 -25 6 -25 15 0 9 -9 15 -25 15 -16 0 -25 6 -25 15 0 9 -9 15 -25 15
-18 0 -25 5 -25 20 0 11 -4 20 -10 20 -5 0 -10 7 -10 15 0 9 -9 15 -25 15 -16
0 -25 6 -25 15 0 9 -9 15 -25 15 -16 0 -25 6 -25 15 0 9 -9 15 -25 15 -16 0
-25 6 -25 15 0 8 -7 15 -15 15 -8 0 -15 9 -15 20 0 15 -7 20 -25 20 -16 0 -25
6 -25 15 0 9 -9 15 -25 15 -16 0 -25 6 -25 15 0 9 -9 15 -25 15 -16 0 -25 6
-25 15 0 8 -4 15 -10 15 -5 0 -10 7 -10 15 0 9 -9 15 -25 15 -18 0 -25 5 -25
20 0 15 -7 20 -25 20 -16 0 -25 6 -25 15 0 9 -9 15 -25 15 -16 0 -25 6 -25 15
0 8 -4 15 -10 15 -5 0 -10 7 -10 15 0 9 -9 15 -25 15 -16 0 -25 6 -25 15 0 9
-9 15 -25 15 -18 0 -25 5 -25 20 0 11 -7 20 -15 20 -8 0 -15 7 -15 15 0 9 -9
15 -25 15 -16 0 -25 6 -25 15 0 8 -9 15 -20 15 -11 0 -20 7 -20 15 0 9 -9 15
-25 15 -16 0 -25 6 -25 15 0 8 -7 15 -15 15 -8 0 -15 9 -15 20 0 15 -7 20 -25
20 -16 0 -25 6 -25 15 0 9 -9 15 -25 15 -16 0 -25 6 -25 15 0 9 -9 15 -25 15
-16 0 -25 6 -25 15 0 8 -4 15 -10 15 -5 0 -10 7 -10 15 0 9 -9 15 -25 15 -16
0 -25 6 -25 15 0 9 -9 15 -25 15 -18 0 -25 5 -25 20 0 11 -7 20 -15 20 -8 0
-15 7 -15 15 0 8 -9 15 -20 15 -11 0 -20 7 -20 15 0 9 -9 15 -25 15 -16 0 -25
6 -25 15 0 9 -9 15 -25 15 -16 0 -25 6 -25 15 0 8 -7 15 -15 15 -8 0 -15 9
-15 20 0 15 -7 20 -25 20 -16 0 -25 6 -25 15 0 9 -9 15 -25 15 -16 0 -25 6
-25 15 0 8 -4 15 -10 15 -5 0 -10 7 -10 15 0 9 -9 15 -25 15 -16 0 -25 6 -25
15 0 9 -9 15 -25 15 -18 0 -25 5 -25 20 0 15 -7 20 -25 20 -16 0 -25 6 -25 15
0 8 -4 15 -10 15 -5 0 -10 7 -10 15 0 9 -9 15 -25 15 -16 0 -25 6 -25 15 0 9
-9 15 -25 15 -16 0 -25 6 -25 15 0 9 -9 15 -25 15 -18 0 -25 5 -25 20 0 11 -7
20 -15 20 -8 0 -15 7 -15 15 0 9 -9 15 -25 15 -16 0 -25 6 -25 15 0 9 -9 15
-25 15 -16 0 -25 6 -25 15 0 9 -9 15 -25 15 -16 0 -25 6 -25 15 0 8 -4 15 -10
15 -5 0 -10 9 -10 20 0 15 -7 20 -25 20 -16 0 -25 6 -25 15 0 9 -9 15 -25 15
-16 0 -25 6 -25 15 0 9 -9 15 -25 15 -16 0 -25 6 -25 15 0 8 -4 15 -10 15 -5
0 -10 7 -10 15 0 9 -9 15 -25 15 -18 0 -25 5 -25 20 0 15 -7 20 -25 20 -16 0
-25 6 -25 15 0 9 -9 15 -25 15 -16 0 -25 6 -25 15 0 8 -7 15 -15 15 -8 0 -15
7 -15 15 0 8 -9 15 -20 15 -11 0 -20 7 -20 15 0 9 -9 15 -25 15 -18 0 -25 5
-25 20 0 15 -7 20 -25 20 -16 0 -25 6 -25 15 0 8 -7 15 -15 15 -8 0 -15 7 -15
15 0 9 -9 15 -25 15 -16 0 -25 6 -25 15 0 9 -9 15 -25 15 -16 0 -25 6 -25 15
0 8 -4 15 -10 15 -5 0 -10 9 -10 20 0 15 -7 20 -25 20 -16 0 -25 6 -25 15 0 9
-9 15 -25 15 -16 0 -25 6 -25 15 0 9 -9 15 -25 15 -16 0 -25 6 -25 15 0 8 -4
15 -10 15 -5 0 -10 7 -10 15 0 9 -9 15 -25 15 -18 0 -25 5 -25 20 0 15 -7 20
-25 20 -16 0 -25 6 -25 15 0 8 -7 15 -15 15 -8 0 -15 7 -15 15 0 9 -9 15 -25
15 -16 0 -25 6 -25 15 0 9 -9 15 -25 15 -16 0 -25 6 -25 15 0 9 -9 15 -25 15
-18 0 -25 5 -25 20 0 11 -4 20 -10 20 -5 0 -10 7 -10 15 0 9 -9 15 -25 15 -16
0 -25 6 -25 15 0 9 -9 15 -25 15 -16 0 -25 6 -25 15 0 8 -4 15 -10 15 -5 0
-10 7 -10 15 0 9 -9 15 -25 15 -18 0 -25 5 -25 20 0 15 -7 20 -25 20 -16 0
-25 6 -25 15 0 9 -9 15 -25 15 -16 0 -25 6 -25 15 0 8 -7 15 -15 15 -8 0 -15
7 -15 15 0 9 -9 15 -25 15 -16 0 -25 6 -25 15 0 9 -9 15 -25 15 -18 0 -25 5
-25 20 0 13 -7 20 -20 20 -11 0 -20 7 -20 15 0 8 -7 15 -15 15 -8 0 -15 7 -15
15 0 9 -9 15 -25 15 -16 0 -25 6 -25 15 0 9 -9 15 -25 15 -16 0 -25 6 -25 15
0 9 -9 15 -25 15 -18 0 -25 5 -25 20 0 15 -7 20 -25 20 -21 0 -25 5 -25 30 0
17 -4 30 -10 30 -7 0 -10 625 -10 1855 0 1230 3 1855 10 1855 6 0 10 7 10 15
0 8 -4 15 -10 15 -5 0 -10 7 -10 15 0 9 9 15 25 15 16 0 25 -6 25 -15z"/>
<path d="M18830 21390 l0 -30 3715 0 3715 0 0 30 0 30 -3715 0 -3715 0 0 -30z"/>
<path d="M21350 7875 l0 -3325 610 0 610 0 0 1508 0 1507 98 97 c70 70 139
124 251 198 181 119 240 150 359 189 169 56 281 75 457 74 126 0 180 -4 252
-21 291 -66 480 -219 622 -501 38 -74 65 -202 80 -376 7 -76 11 -585 11 -1382
l0 -1263 610 0 610 0 0 1304 c0 779 -4 1355 -10 1432 -29 368 -83 565 -240
874 -125 244 -231 373 -458 556 -238 191 -506 347 -722 418 -225 74 -426 101
-715 93 -232 -6 -341 -22 -505 -77 -251 -83 -464 -188 -613 -301 -43 -32 -80
-59 -82 -59 -3 0 -5 536 -5 1190 l0 1190 -610 0 -610 0 0 -3325z"/>
<path d="M7703 9279 c-293 -34 -644 -150 -883 -291 -151 -89 -255 -172 -406
-322 -146 -147 -223 -245 -324 -415 -179 -301 -270 -551 -329 -897 -44 -260
-52 -565 -21 -829 52 -451 228 -876 507 -1225 109 -136 317 -338 418 -407 325
-219 703 -360 1115 -415 127 -17 577 -17 695 0 303 44 505 105 780 236 156 75
280 151 406 248 112 87 331 297 327 314 -2 6 -151 179 -332 383 l-328 371 -63
-58 c-190 -178 -471 -346 -680 -407 -154 -45 -269 -57 -470 -52 -150 4 -196 9
-276 30 -177 46 -322 119 -487 245 -143 110 -224 209 -326 398 -78 145 -114
251 -131 387 l-7 57 1600 0 1601 0 12 58 c19 85 16 457 -5 607 -30 215 -89
424 -192 687 -72 183 -165 348 -278 493 -89 113 -306 331 -404 404 -304 229
-635 358 -1024 400 -112 13 -389 12 -495 0z m487 -1046 c249 -91 275 -104 359
-179 53 -48 205 -263 254 -360 28 -55 57 -156 57 -198 l0 -26 -960 0 -959 0 5
33 c12 61 55 182 86 237 41 74 89 140 169 230 106 120 314 234 513 280 65 16
112 19 236 17 145 -3 161 -5 240 -34z"/>
<path d="M12785 9193 c-523 -63 -934 -265 -1321 -650 -365 -364 -602 -848
-668 -1363 -44 -351 -21 -769 58 -1042 34 -117 134 -349 208 -483 213 -383
448 -631 811 -852 388 -235 679 -325 1107 -340 261 -9 441 17 770 111 244 69
411 157 562 295 36 34 69 61 72 61 3 0 6 -85 6 -190 l0 -190 580 0 580 0 0
2300 0 2300 -580 0 -580 0 0 -205 c0 -133 -4 -205 -10 -205 -6 0 -38 22 -73
49 -131 103 -357 227 -539 295 -231 86 -429 117 -741 115 -117 -1 -225 -4
-242 -6z m665 -1118 c113 -20 193 -47 330 -113 207 -98 365 -219 476 -364 48
-62 51 -68 29 -68 -13 0 -15 -85 -15 -704 l0 -703 -49 -64 c-113 -149 -339
-319 -511 -382 -219 -81 -355 -108 -550 -109 -230 -1 -442 49 -605 143 -93 53
-233 168 -331 272 -196 206 -297 521 -281 877 10 206 47 350 142 540 140 280
312 458 567 586 114 57 209 88 323 103 95 13 371 5 475 -14z"/>
</g>
</svg>
